<?xml version="1.0" encoding="UTF-8" standalone="no"?>
<!-- Created with Inkscape (http://www.inkscape.org/) -->

<svg
   width="15.999999"
   height="16"
   viewBox="0 0 4.233333 4.2333332"
   version="1.1"
   id="svg1"
   xml:space="preserve"
   xmlns:inkscape="http://www.inkscape.org/namespaces/inkscape"
   xmlns:sodipodi="http://sodipodi.sourceforge.net/DTD/sodipodi-0.dtd"
   xmlns:xlink="http://www.w3.org/1999/xlink"
   xmlns="http://www.w3.org/2000/svg"
   xmlns:svg="http://www.w3.org/2000/svg"><sodipodi:namedview
     id="namedview1"
     pagecolor="#ffffff"
     bordercolor="#000000"
     borderopacity="0.25"
     inkscape:showpageshadow="2"
     inkscape:pageopacity="0.0"
     inkscape:pagecheckerboard="0"
     inkscape:deskcolor="#d1d1d1"
     inkscape:document-units="mm" /><defs
     id="defs1"><linearGradient
       id="linearGradient5"
       inkscape:collect="always"><stop
         style="stop-color:#e50000;stop-opacity:1;"
         offset="0"
         id="stop5" /><stop
         style="stop-color:#e1ff16;stop-opacity:1;"
         offset="0.39249212"
         id="stop8" /><stop
         style="stop-color:#3fe83f;stop-opacity:1;"
         offset="0.51999998"
         id="stop7" /><stop
         style="stop-color:#0ee1ff;stop-opacity:1;"
         offset="0.64012617"
         id="stop9" /><stop
         style="stop-color:#3500f4;stop-opacity:1;"
         offset="1"
         id="stop6" /></linearGradient><linearGradient
       inkscape:collect="always"
       xlink:href="#linearGradient5"
       id="linearGradient6"
       x1="0.36938077"
       y1="2.1205316"
       x2="3.8146021"
       y2="2.1205316"
       gradientUnits="userSpaceOnUse"
       spreadMethod="pad" /></defs><g
     inkscape:label="Layer 1"
     inkscape:groupmode="layer"
     id="layer1"><path
       d="M 1.6923697,0.26844112 A 0.26458333,0.26458333 0 0 0 1.4277864,0.53302446 V 1.3267745 A 0.26458333,0.26458333 0 0 0 1.6923697,1.5913578 H 1.956953 V 1.8532953 A 0.26458333,0.26458333 0 0 0 1.873345,1.8696993 L 1.3306843,2.0506745 1.1497093,1.508014 A 0.26460203,0.26460203 0 0 0 0.64753016,1.6749661 l 0.26458333,0.79375 A 0.26458333,0.26458333 0 0 0 1.2468114,2.6361974 L 1.6923697,2.4880307 v 0.1613958 c 0,0.010848 0.00503,0.020108 0.00635,0.030692 l -1.21152704,0.807508 a 0.26461629,0.26461629 0 1 0 0.2936875,0.4402667 L 2.1186135,3.0362474 2.5141655,3.8262932 A 0.26458333,0.26458333 0 0 0 2.8343114,3.959114 l 0.79375,-0.2645833 A 0.26458333,0.26458333 0 1 0 3.4608447,3.1926161 L 2.8845822,3.384439 2.6266135,2.868237 A 0.25955625,0.25955625 0 0 0 2.750703,2.6494265 V 2.3851078 H 3.1166218 L 3.307651,2.7682245 A 0.26475278,0.26475278 0 1 0 3.7812551,2.5314224 L 3.5166718,2.0022557 A 0.26458333,0.26458333 0 0 0 3.2798697,1.8559411 h -0.79375 V 1.5913578 H 2.750703 A 0.26458333,0.26458333 0 0 0 3.0152864,1.3267745 V 0.53302446 A 0.26458333,0.26458333 0 0 0 2.750703,0.26844112 Z m 0,0.52916667 H 1.956953 V 1.3267745 H 1.6923697 Z"
       fill="#fc7f7f"
       id="path1"
       style="opacity:1;fill:url(#linearGradient6);fill-opacity:1;stroke:none;stroke-width:0.264583;stroke-opacity:1" /></g></svg>
